<mxfile host="app.diagrams.net" modified="2023-12-14T11:57:53.024Z" agent="Mozilla/5.0 (X11; Ubuntu; Linux x86_64; rv:109.0) Gecko/20100101 Firefox/119.0" etag="OAxC-Dv2krID1iDxVWxq" version="22.1.8" type="device">
  <diagram name="Página-1" id="k0Ax2bq_UjoQgjMTf2to">
    <mxGraphModel dx="1604" dy="1964" grid="1" gridSize="10" guides="1" tooltips="1" connect="1" arrows="1" fold="1" page="1" pageScale="1" pageWidth="827" pageHeight="1169" math="0" shadow="0">
      <root>
        <mxCell id="0" />
        <mxCell id="1" parent="0" />
        <mxCell id="724cUraub_NGiYF2e8mZ-1" value="Gimnasio" style="rounded=0;whiteSpace=wrap;html=1;" vertex="1" parent="1">
          <mxGeometry x="130" y="70" width="120" height="60" as="geometry" />
        </mxCell>
        <mxCell id="724cUraub_NGiYF2e8mZ-2" value="Trabaja" style="rhombus;whiteSpace=wrap;html=1;" vertex="1" parent="1">
          <mxGeometry x="290" y="60" width="80" height="80" as="geometry" />
        </mxCell>
        <mxCell id="724cUraub_NGiYF2e8mZ-3" value="Entrenador" style="rounded=0;whiteSpace=wrap;html=1;" vertex="1" parent="1">
          <mxGeometry x="420" y="70" width="120" height="60" as="geometry" />
        </mxCell>
        <mxCell id="724cUraub_NGiYF2e8mZ-6" value="" style="endArrow=none;html=1;rounded=0;edgeStyle=orthogonalEdgeStyle;entryX=0;entryY=0.5;entryDx=0;entryDy=0;exitX=1;exitY=0.5;exitDx=0;exitDy=0;" edge="1" parent="1" source="724cUraub_NGiYF2e8mZ-1" target="724cUraub_NGiYF2e8mZ-2">
          <mxGeometry width="50" height="50" relative="1" as="geometry">
            <mxPoint x="150" y="170" as="sourcePoint" />
            <mxPoint x="200" y="120" as="targetPoint" />
          </mxGeometry>
        </mxCell>
        <mxCell id="724cUraub_NGiYF2e8mZ-8" value="" style="endArrow=none;html=1;rounded=0;edgeStyle=orthogonalEdgeStyle;entryX=0;entryY=0.5;entryDx=0;entryDy=0;exitX=1;exitY=0.5;exitDx=0;exitDy=0;" edge="1" parent="1" source="724cUraub_NGiYF2e8mZ-2" target="724cUraub_NGiYF2e8mZ-3">
          <mxGeometry width="50" height="50" relative="1" as="geometry">
            <mxPoint x="360" y="160" as="sourcePoint" />
            <mxPoint x="410" y="110" as="targetPoint" />
          </mxGeometry>
        </mxCell>
        <mxCell id="724cUraub_NGiYF2e8mZ-9" value="(1:N)" style="text;html=1;strokeColor=none;fillColor=none;align=center;verticalAlign=middle;whiteSpace=wrap;rounded=0;" vertex="1" parent="1">
          <mxGeometry x="390" y="40" width="60" height="30" as="geometry" />
        </mxCell>
        <mxCell id="724cUraub_NGiYF2e8mZ-10" value="(1:1)" style="text;html=1;strokeColor=none;fillColor=none;align=center;verticalAlign=middle;whiteSpace=wrap;rounded=0;" vertex="1" parent="1">
          <mxGeometry x="200" y="40" width="60" height="30" as="geometry" />
        </mxCell>
        <mxCell id="724cUraub_NGiYF2e8mZ-12" value="(1:N)" style="text;html=1;strokeColor=none;fillColor=none;align=center;verticalAlign=middle;whiteSpace=wrap;rounded=0;" vertex="1" parent="1">
          <mxGeometry x="300" y="30" width="60" height="30" as="geometry" />
        </mxCell>
        <mxCell id="724cUraub_NGiYF2e8mZ-13" value="&lt;u&gt;DNI&lt;/u&gt;" style="ellipse;whiteSpace=wrap;html=1;" vertex="1" parent="1">
          <mxGeometry x="500" y="560" width="60" height="20" as="geometry" />
        </mxCell>
        <mxCell id="724cUraub_NGiYF2e8mZ-14" value="Nombre" style="ellipse;whiteSpace=wrap;html=1;" vertex="1" parent="1">
          <mxGeometry x="560" y="560" width="60" height="20" as="geometry" />
        </mxCell>
        <mxCell id="724cUraub_NGiYF2e8mZ-16" value="Primer apellido" style="ellipse;whiteSpace=wrap;html=1;" vertex="1" parent="1">
          <mxGeometry x="630" y="555" width="70" height="30" as="geometry" />
        </mxCell>
        <mxCell id="724cUraub_NGiYF2e8mZ-17" value="Salario" style="ellipse;whiteSpace=wrap;html=1;" vertex="1" parent="1">
          <mxGeometry x="390" y="180" width="60" height="20" as="geometry" />
        </mxCell>
        <mxCell id="724cUraub_NGiYF2e8mZ-18" value="&lt;u&gt;Nombre&lt;/u&gt;" style="ellipse;whiteSpace=wrap;html=1;" vertex="1" parent="1">
          <mxGeometry x="30" y="90" width="60" height="20" as="geometry" />
        </mxCell>
        <mxCell id="724cUraub_NGiYF2e8mZ-19" value="planificación" style="rounded=0;whiteSpace=wrap;html=1;" vertex="1" parent="1">
          <mxGeometry x="570" y="-60" width="120" height="60" as="geometry" />
        </mxCell>
        <mxCell id="724cUraub_NGiYF2e8mZ-20" value="cliente" style="rounded=0;whiteSpace=wrap;html=1;" vertex="1" parent="1">
          <mxGeometry x="750" y="70" width="120" height="60" as="geometry" />
        </mxCell>
        <mxCell id="724cUraub_NGiYF2e8mZ-21" value="Crea" style="rhombus;whiteSpace=wrap;html=1;" vertex="1" parent="1">
          <mxGeometry x="590" y="60" width="80" height="80" as="geometry" />
        </mxCell>
        <mxCell id="724cUraub_NGiYF2e8mZ-22" value="Entrenamiento" style="rounded=0;whiteSpace=wrap;html=1;" vertex="1" parent="1">
          <mxGeometry x="850" y="-60" width="120" height="60" as="geometry" />
        </mxCell>
        <mxCell id="724cUraub_NGiYF2e8mZ-23" value="tiene" style="rhombus;whiteSpace=wrap;html=1;" vertex="1" parent="1">
          <mxGeometry x="730" y="-70" width="80" height="80" as="geometry" />
        </mxCell>
        <mxCell id="724cUraub_NGiYF2e8mZ-24" value="ejercicios" style="rounded=0;whiteSpace=wrap;html=1;" vertex="1" parent="1">
          <mxGeometry x="1190" y="-60" width="120" height="60" as="geometry" />
        </mxCell>
        <mxCell id="724cUraub_NGiYF2e8mZ-25" value="tiene" style="rhombus;whiteSpace=wrap;html=1;" vertex="1" parent="1">
          <mxGeometry x="1050" y="-70" width="80" height="80" as="geometry" />
        </mxCell>
        <mxCell id="724cUraub_NGiYF2e8mZ-26" value="material" style="rounded=0;whiteSpace=wrap;html=1;" vertex="1" parent="1">
          <mxGeometry x="1550" y="-60" width="120" height="60" as="geometry" />
        </mxCell>
        <mxCell id="724cUraub_NGiYF2e8mZ-27" value="Utiliza" style="rhombus;whiteSpace=wrap;html=1;" vertex="1" parent="1">
          <mxGeometry x="1400" y="-70" width="80" height="80" as="geometry" />
        </mxCell>
        <mxCell id="724cUraub_NGiYF2e8mZ-29" value="" style="endArrow=none;html=1;rounded=0;entryX=0;entryY=0.5;entryDx=0;entryDy=0;exitX=1;exitY=0.5;exitDx=0;exitDy=0;" edge="1" parent="1" source="724cUraub_NGiYF2e8mZ-18" target="724cUraub_NGiYF2e8mZ-1">
          <mxGeometry width="50" height="50" relative="1" as="geometry">
            <mxPoint x="60" y="10" as="sourcePoint" />
            <mxPoint x="110" y="-40" as="targetPoint" />
          </mxGeometry>
        </mxCell>
        <mxCell id="724cUraub_NGiYF2e8mZ-30" value="" style="endArrow=none;html=1;rounded=0;entryX=0.5;entryY=1;entryDx=0;entryDy=0;exitX=0.5;exitY=0;exitDx=0;exitDy=0;" edge="1" parent="1" source="724cUraub_NGiYF2e8mZ-21" target="724cUraub_NGiYF2e8mZ-19">
          <mxGeometry width="50" height="50" relative="1" as="geometry">
            <mxPoint x="410" y="-20" as="sourcePoint" />
            <mxPoint x="460" y="-70" as="targetPoint" />
          </mxGeometry>
        </mxCell>
        <mxCell id="724cUraub_NGiYF2e8mZ-32" value="" style="endArrow=none;html=1;rounded=0;entryX=0;entryY=0.5;entryDx=0;entryDy=0;exitX=1;exitY=0.5;exitDx=0;exitDy=0;" edge="1" parent="1" source="724cUraub_NGiYF2e8mZ-3" target="724cUraub_NGiYF2e8mZ-21">
          <mxGeometry width="50" height="50" relative="1" as="geometry">
            <mxPoint x="430" y="-40" as="sourcePoint" />
            <mxPoint x="480" y="-90" as="targetPoint" />
          </mxGeometry>
        </mxCell>
        <mxCell id="724cUraub_NGiYF2e8mZ-33" value="" style="endArrow=none;html=1;rounded=0;entryX=0;entryY=0.5;entryDx=0;entryDy=0;exitX=1;exitY=0.5;exitDx=0;exitDy=0;" edge="1" parent="1" source="724cUraub_NGiYF2e8mZ-21" target="724cUraub_NGiYF2e8mZ-20">
          <mxGeometry width="50" height="50" relative="1" as="geometry">
            <mxPoint x="610" y="210" as="sourcePoint" />
            <mxPoint x="660" y="160" as="targetPoint" />
          </mxGeometry>
        </mxCell>
        <mxCell id="724cUraub_NGiYF2e8mZ-34" value="" style="endArrow=none;html=1;rounded=0;entryX=0;entryY=0.5;entryDx=0;entryDy=0;exitX=1;exitY=0.5;exitDx=0;exitDy=0;" edge="1" parent="1" source="724cUraub_NGiYF2e8mZ-23" target="724cUraub_NGiYF2e8mZ-22">
          <mxGeometry width="50" height="50" relative="1" as="geometry">
            <mxPoint x="800" y="30" as="sourcePoint" />
            <mxPoint x="870" y="160" as="targetPoint" />
          </mxGeometry>
        </mxCell>
        <mxCell id="724cUraub_NGiYF2e8mZ-35" value="" style="endArrow=none;html=1;rounded=0;entryX=0;entryY=0.5;entryDx=0;entryDy=0;exitX=1;exitY=0.5;exitDx=0;exitDy=0;" edge="1" parent="1" source="724cUraub_NGiYF2e8mZ-19" target="724cUraub_NGiYF2e8mZ-23">
          <mxGeometry width="50" height="50" relative="1" as="geometry">
            <mxPoint x="540" y="-90" as="sourcePoint" />
            <mxPoint x="590" y="-140" as="targetPoint" />
          </mxGeometry>
        </mxCell>
        <mxCell id="724cUraub_NGiYF2e8mZ-36" value="" style="endArrow=none;html=1;rounded=0;entryX=0;entryY=0.5;entryDx=0;entryDy=0;exitX=1;exitY=0.5;exitDx=0;exitDy=0;" edge="1" parent="1" source="724cUraub_NGiYF2e8mZ-25" target="724cUraub_NGiYF2e8mZ-24">
          <mxGeometry width="50" height="50" relative="1" as="geometry">
            <mxPoint x="1100" y="140" as="sourcePoint" />
            <mxPoint x="1150" y="90" as="targetPoint" />
          </mxGeometry>
        </mxCell>
        <mxCell id="724cUraub_NGiYF2e8mZ-37" value="" style="endArrow=none;html=1;rounded=0;entryX=0;entryY=0.5;entryDx=0;entryDy=0;exitX=1;exitY=0.5;exitDx=0;exitDy=0;" edge="1" parent="1" source="724cUraub_NGiYF2e8mZ-22" target="724cUraub_NGiYF2e8mZ-25">
          <mxGeometry width="50" height="50" relative="1" as="geometry">
            <mxPoint x="790" y="-100" as="sourcePoint" />
            <mxPoint x="840" y="-150" as="targetPoint" />
          </mxGeometry>
        </mxCell>
        <mxCell id="724cUraub_NGiYF2e8mZ-38" value="" style="endArrow=none;html=1;rounded=0;entryX=0;entryY=0.5;entryDx=0;entryDy=0;exitX=1;exitY=0.5;exitDx=0;exitDy=0;" edge="1" parent="1" source="724cUraub_NGiYF2e8mZ-24" target="724cUraub_NGiYF2e8mZ-27">
          <mxGeometry width="50" height="50" relative="1" as="geometry">
            <mxPoint x="1310" y="100" as="sourcePoint" />
            <mxPoint x="1360" y="50" as="targetPoint" />
          </mxGeometry>
        </mxCell>
        <mxCell id="724cUraub_NGiYF2e8mZ-39" value="" style="endArrow=none;html=1;rounded=0;entryX=1;entryY=0.5;entryDx=0;entryDy=0;exitX=0;exitY=0.5;exitDx=0;exitDy=0;" edge="1" parent="1" source="724cUraub_NGiYF2e8mZ-26" target="724cUraub_NGiYF2e8mZ-27">
          <mxGeometry width="50" height="50" relative="1" as="geometry">
            <mxPoint x="1430" y="80" as="sourcePoint" />
            <mxPoint x="1480" y="30" as="targetPoint" />
          </mxGeometry>
        </mxCell>
        <mxCell id="724cUraub_NGiYF2e8mZ-40" value="" style="endArrow=none;html=1;rounded=0;entryX=0;entryY=1;entryDx=0;entryDy=0;exitX=1;exitY=0;exitDx=0;exitDy=0;" edge="1" parent="1" source="724cUraub_NGiYF2e8mZ-13" target="724cUraub_NGiYF2e8mZ-51">
          <mxGeometry width="50" height="50" relative="1" as="geometry">
            <mxPoint x="450" y="270" as="sourcePoint" />
            <mxPoint x="500" y="220" as="targetPoint" />
          </mxGeometry>
        </mxCell>
        <mxCell id="724cUraub_NGiYF2e8mZ-41" value="" style="endArrow=none;html=1;rounded=0;entryX=0.25;entryY=1;entryDx=0;entryDy=0;exitX=0.5;exitY=0;exitDx=0;exitDy=0;" edge="1" parent="1" source="724cUraub_NGiYF2e8mZ-14" target="724cUraub_NGiYF2e8mZ-51">
          <mxGeometry width="50" height="50" relative="1" as="geometry">
            <mxPoint x="580" y="570" as="sourcePoint" />
            <mxPoint x="440" y="150" as="targetPoint" />
          </mxGeometry>
        </mxCell>
        <mxCell id="724cUraub_NGiYF2e8mZ-42" value="" style="endArrow=none;html=1;rounded=0;entryX=0.642;entryY=1.05;entryDx=0;entryDy=0;exitX=0.5;exitY=0;exitDx=0;exitDy=0;entryPerimeter=0;" edge="1" parent="1" source="724cUraub_NGiYF2e8mZ-16" target="724cUraub_NGiYF2e8mZ-51">
          <mxGeometry width="50" height="50" relative="1" as="geometry">
            <mxPoint x="450" y="210" as="sourcePoint" />
            <mxPoint x="500" y="160" as="targetPoint" />
          </mxGeometry>
        </mxCell>
        <mxCell id="724cUraub_NGiYF2e8mZ-43" value="" style="endArrow=none;html=1;rounded=0;entryX=0.308;entryY=1;entryDx=0;entryDy=0;entryPerimeter=0;" edge="1" parent="1" target="724cUraub_NGiYF2e8mZ-3">
          <mxGeometry width="50" height="50" relative="1" as="geometry">
            <mxPoint x="430" y="180" as="sourcePoint" />
            <mxPoint x="200" y="250" as="targetPoint" />
          </mxGeometry>
        </mxCell>
        <mxCell id="724cUraub_NGiYF2e8mZ-45" value="(1:N)" style="text;html=1;strokeColor=none;fillColor=none;align=center;verticalAlign=middle;whiteSpace=wrap;rounded=0;" vertex="1" parent="1">
          <mxGeometry x="700" y="100" width="60" height="30" as="geometry" />
        </mxCell>
        <mxCell id="724cUraub_NGiYF2e8mZ-50" value="Fecha" style="ellipse;whiteSpace=wrap;html=1;direction=west;" vertex="1" parent="1">
          <mxGeometry x="850" y="180" width="80" height="30" as="geometry" />
        </mxCell>
        <mxCell id="724cUraub_NGiYF2e8mZ-51" value="Persona" style="rounded=0;whiteSpace=wrap;html=1;" vertex="1" parent="1">
          <mxGeometry x="560" y="440" width="120" height="60" as="geometry" />
        </mxCell>
        <mxCell id="724cUraub_NGiYF2e8mZ-52" value="" style="triangle;whiteSpace=wrap;html=1;rotation=-90;" vertex="1" parent="1">
          <mxGeometry x="595" y="320" width="60" height="80" as="geometry" />
        </mxCell>
        <mxCell id="724cUraub_NGiYF2e8mZ-53" value="" style="shape=or;whiteSpace=wrap;html=1;rotation=-90;" vertex="1" parent="1">
          <mxGeometry x="620" y="270" width="10" height="120" as="geometry" />
        </mxCell>
        <mxCell id="724cUraub_NGiYF2e8mZ-54" value="" style="endArrow=none;html=1;rounded=0;entryX=0;entryY=0.5;entryDx=0;entryDy=0;exitX=0.5;exitY=0;exitDx=0;exitDy=0;" edge="1" parent="1" source="724cUraub_NGiYF2e8mZ-51" target="724cUraub_NGiYF2e8mZ-52">
          <mxGeometry width="50" height="50" relative="1" as="geometry">
            <mxPoint x="510" y="460" as="sourcePoint" />
            <mxPoint x="560" y="410" as="targetPoint" />
          </mxGeometry>
        </mxCell>
        <mxCell id="724cUraub_NGiYF2e8mZ-55" value="(1:1)" style="text;html=1;strokeColor=none;fillColor=none;align=center;verticalAlign=middle;whiteSpace=wrap;rounded=0;" vertex="1" parent="1">
          <mxGeometry x="620" y="400" width="60" height="30" as="geometry" />
        </mxCell>
        <mxCell id="724cUraub_NGiYF2e8mZ-56" value="(0:1)" style="text;html=1;strokeColor=none;fillColor=none;align=center;verticalAlign=middle;whiteSpace=wrap;rounded=0;" vertex="1" parent="1">
          <mxGeometry x="470" y="130" width="60" height="30" as="geometry" />
        </mxCell>
        <mxCell id="724cUraub_NGiYF2e8mZ-57" value="(0:1)" style="text;html=1;strokeColor=none;fillColor=none;align=center;verticalAlign=middle;whiteSpace=wrap;rounded=0;" vertex="1" parent="1">
          <mxGeometry x="770" y="140" width="60" height="30" as="geometry" />
        </mxCell>
        <mxCell id="724cUraub_NGiYF2e8mZ-59" value="" style="endArrow=none;html=1;rounded=0;entryX=0.75;entryY=1;entryDx=0;entryDy=0;exitX=1;exitY=0.5;exitDx=0;exitDy=0;exitPerimeter=0;" edge="1" parent="1" source="724cUraub_NGiYF2e8mZ-53" target="724cUraub_NGiYF2e8mZ-3">
          <mxGeometry width="50" height="50" relative="1" as="geometry">
            <mxPoint x="570" y="240" as="sourcePoint" />
            <mxPoint x="620" y="190" as="targetPoint" />
          </mxGeometry>
        </mxCell>
        <mxCell id="724cUraub_NGiYF2e8mZ-60" value="" style="endArrow=none;html=1;rounded=0;entryX=0.25;entryY=1;entryDx=0;entryDy=0;exitX=1;exitY=0.5;exitDx=0;exitDy=0;exitPerimeter=0;" edge="1" parent="1" source="724cUraub_NGiYF2e8mZ-53" target="724cUraub_NGiYF2e8mZ-20">
          <mxGeometry width="50" height="50" relative="1" as="geometry">
            <mxPoint x="630" y="240" as="sourcePoint" />
            <mxPoint x="680" y="190" as="targetPoint" />
          </mxGeometry>
        </mxCell>
        <mxCell id="724cUraub_NGiYF2e8mZ-61" value="" style="endArrow=none;html=1;rounded=0;entryX=0.842;entryY=1.033;entryDx=0;entryDy=0;entryPerimeter=0;exitX=1;exitY=1;exitDx=0;exitDy=0;" edge="1" parent="1" source="724cUraub_NGiYF2e8mZ-50" target="724cUraub_NGiYF2e8mZ-20">
          <mxGeometry width="50" height="50" relative="1" as="geometry">
            <mxPoint x="920" y="240" as="sourcePoint" />
            <mxPoint x="970" y="190" as="targetPoint" />
          </mxGeometry>
        </mxCell>
        <mxCell id="724cUraub_NGiYF2e8mZ-62" value="(1:1)" style="text;html=1;strokeColor=none;fillColor=none;align=center;verticalAlign=middle;whiteSpace=wrap;rounded=0;" vertex="1" parent="1">
          <mxGeometry x="530" y="120" width="60" height="30" as="geometry" />
        </mxCell>
        <mxCell id="724cUraub_NGiYF2e8mZ-63" value="&lt;u&gt;Codigo&lt;/u&gt;" style="ellipse;whiteSpace=wrap;html=1;" vertex="1" parent="1">
          <mxGeometry x="500" y="-100" width="70" height="20" as="geometry" />
        </mxCell>
        <mxCell id="724cUraub_NGiYF2e8mZ-64" value="Fecha" style="ellipse;whiteSpace=wrap;html=1;" vertex="1" parent="1">
          <mxGeometry x="585" y="-105" width="70" height="20" as="geometry" />
        </mxCell>
        <mxCell id="724cUraub_NGiYF2e8mZ-66" value="(1:N)" style="text;html=1;strokeColor=none;fillColor=none;align=center;verticalAlign=middle;whiteSpace=wrap;rounded=0;" vertex="1" parent="1">
          <mxGeometry x="620" width="60" height="30" as="geometry" />
        </mxCell>
        <mxCell id="724cUraub_NGiYF2e8mZ-67" value="(1:N)" style="text;html=1;strokeColor=none;fillColor=none;align=center;verticalAlign=middle;whiteSpace=wrap;rounded=0;" vertex="1" parent="1">
          <mxGeometry x="830" y="-90" width="60" height="30" as="geometry" />
        </mxCell>
        <mxCell id="724cUraub_NGiYF2e8mZ-68" value="(1:1)" style="text;html=1;strokeColor=none;fillColor=none;align=center;verticalAlign=middle;whiteSpace=wrap;rounded=0;" vertex="1" parent="1">
          <mxGeometry x="655" y="-90" width="60" height="30" as="geometry" />
        </mxCell>
        <mxCell id="724cUraub_NGiYF2e8mZ-69" value="&lt;u&gt;codígo&lt;/u&gt;" style="ellipse;whiteSpace=wrap;html=1;" vertex="1" parent="1">
          <mxGeometry x="800" y="-170" width="80" height="30" as="geometry" />
        </mxCell>
        <mxCell id="724cUraub_NGiYF2e8mZ-70" value="Fecha" style="ellipse;whiteSpace=wrap;html=1;" vertex="1" parent="1">
          <mxGeometry x="890" y="-160" width="80" height="30" as="geometry" />
        </mxCell>
        <mxCell id="724cUraub_NGiYF2e8mZ-71" value="" style="endArrow=none;html=1;rounded=0;entryX=1;entryY=1;entryDx=0;entryDy=0;exitX=0.133;exitY=0.017;exitDx=0;exitDy=0;exitPerimeter=0;" edge="1" parent="1" source="724cUraub_NGiYF2e8mZ-19" target="724cUraub_NGiYF2e8mZ-63">
          <mxGeometry width="50" height="50" relative="1" as="geometry">
            <mxPoint x="500" y="-100" as="sourcePoint" />
            <mxPoint x="550" y="-150" as="targetPoint" />
          </mxGeometry>
        </mxCell>
        <mxCell id="724cUraub_NGiYF2e8mZ-72" value="" style="endArrow=none;html=1;rounded=0;entryX=0.5;entryY=1;entryDx=0;entryDy=0;exitX=0.5;exitY=0;exitDx=0;exitDy=0;" edge="1" parent="1" source="724cUraub_NGiYF2e8mZ-19" target="724cUraub_NGiYF2e8mZ-64">
          <mxGeometry width="50" height="50" relative="1" as="geometry">
            <mxPoint x="640" y="-130" as="sourcePoint" />
            <mxPoint x="690" y="-180" as="targetPoint" />
          </mxGeometry>
        </mxCell>
        <mxCell id="724cUraub_NGiYF2e8mZ-73" value="" style="endArrow=none;html=1;rounded=0;entryX=0.588;entryY=1.067;entryDx=0;entryDy=0;exitX=0.35;exitY=0.017;exitDx=0;exitDy=0;exitPerimeter=0;entryPerimeter=0;" edge="1" parent="1" source="724cUraub_NGiYF2e8mZ-22" target="724cUraub_NGiYF2e8mZ-69">
          <mxGeometry width="50" height="50" relative="1" as="geometry">
            <mxPoint x="970" y="-140" as="sourcePoint" />
            <mxPoint x="1020" y="-190" as="targetPoint" />
          </mxGeometry>
        </mxCell>
        <mxCell id="724cUraub_NGiYF2e8mZ-74" value="" style="endArrow=none;html=1;rounded=0;entryX=0;entryY=1;entryDx=0;entryDy=0;exitX=0.583;exitY=0.033;exitDx=0;exitDy=0;exitPerimeter=0;" edge="1" parent="1" source="724cUraub_NGiYF2e8mZ-22" target="724cUraub_NGiYF2e8mZ-70">
          <mxGeometry width="50" height="50" relative="1" as="geometry">
            <mxPoint x="940" y="-160" as="sourcePoint" />
            <mxPoint x="990" y="-210" as="targetPoint" />
          </mxGeometry>
        </mxCell>
        <mxCell id="724cUraub_NGiYF2e8mZ-75" value="(1:N)" style="text;html=1;strokeColor=none;fillColor=none;align=center;verticalAlign=middle;whiteSpace=wrap;rounded=0;" vertex="1" parent="1">
          <mxGeometry x="740" y="-100" width="60" height="30" as="geometry" />
        </mxCell>
        <mxCell id="724cUraub_NGiYF2e8mZ-76" value="(1:N)" style="text;html=1;strokeColor=none;fillColor=none;align=center;verticalAlign=middle;whiteSpace=wrap;rounded=0;" vertex="1" parent="1">
          <mxGeometry x="1160" y="-85" width="60" height="30" as="geometry" />
        </mxCell>
        <mxCell id="724cUraub_NGiYF2e8mZ-77" value="(1:N)" style="text;html=1;strokeColor=none;fillColor=none;align=center;verticalAlign=middle;whiteSpace=wrap;rounded=0;" vertex="1" parent="1">
          <mxGeometry x="930" y="-90" width="60" height="30" as="geometry" />
        </mxCell>
        <mxCell id="724cUraub_NGiYF2e8mZ-78" value="&lt;u&gt;Nombre&lt;/u&gt;" style="ellipse;whiteSpace=wrap;html=1;" vertex="1" parent="1">
          <mxGeometry x="1130" y="30" width="60" height="20" as="geometry" />
        </mxCell>
        <mxCell id="724cUraub_NGiYF2e8mZ-79" value="Numero de series" style="ellipse;whiteSpace=wrap;html=1;" vertex="1" parent="1">
          <mxGeometry x="1170" y="50" width="100" height="35" as="geometry" />
        </mxCell>
        <mxCell id="724cUraub_NGiYF2e8mZ-80" value="Numero de repeticiones" style="ellipse;whiteSpace=wrap;html=1;" vertex="1" parent="1">
          <mxGeometry x="1270" y="37.5" width="100" height="35" as="geometry" />
        </mxCell>
        <mxCell id="724cUraub_NGiYF2e8mZ-81" value="" style="endArrow=none;html=1;rounded=0;entryX=0.158;entryY=1.033;entryDx=0;entryDy=0;entryPerimeter=0;exitX=0.5;exitY=0;exitDx=0;exitDy=0;" edge="1" parent="1" source="724cUraub_NGiYF2e8mZ-78" target="724cUraub_NGiYF2e8mZ-24">
          <mxGeometry width="50" height="50" relative="1" as="geometry">
            <mxPoint x="1060" y="90" as="sourcePoint" />
            <mxPoint x="1110" y="40" as="targetPoint" />
          </mxGeometry>
        </mxCell>
        <mxCell id="724cUraub_NGiYF2e8mZ-82" value="" style="endArrow=none;html=1;rounded=0;entryX=0.375;entryY=1.017;entryDx=0;entryDy=0;entryPerimeter=0;exitX=0.5;exitY=0;exitDx=0;exitDy=0;" edge="1" parent="1" source="724cUraub_NGiYF2e8mZ-79" target="724cUraub_NGiYF2e8mZ-24">
          <mxGeometry width="50" height="50" relative="1" as="geometry">
            <mxPoint x="990" y="170" as="sourcePoint" />
            <mxPoint x="1040" y="120" as="targetPoint" />
          </mxGeometry>
        </mxCell>
        <mxCell id="724cUraub_NGiYF2e8mZ-83" value="" style="endArrow=none;html=1;rounded=0;entryX=0.75;entryY=1;entryDx=0;entryDy=0;exitX=0.5;exitY=0;exitDx=0;exitDy=0;" edge="1" parent="1" source="724cUraub_NGiYF2e8mZ-80" target="724cUraub_NGiYF2e8mZ-24">
          <mxGeometry width="50" height="50" relative="1" as="geometry">
            <mxPoint x="1180" y="230" as="sourcePoint" />
            <mxPoint x="1230" y="180" as="targetPoint" />
          </mxGeometry>
        </mxCell>
        <mxCell id="724cUraub_NGiYF2e8mZ-84" value="(N:M)" style="text;html=1;strokeColor=none;fillColor=none;align=center;verticalAlign=middle;whiteSpace=wrap;rounded=0;" vertex="1" parent="1">
          <mxGeometry x="1070" y="-105" width="60" height="30" as="geometry" />
        </mxCell>
        <mxCell id="724cUraub_NGiYF2e8mZ-85" value="(0:N)" style="text;html=1;strokeColor=none;fillColor=none;align=center;verticalAlign=middle;whiteSpace=wrap;rounded=0;" vertex="1" parent="1">
          <mxGeometry x="1550" y="-90" width="60" height="30" as="geometry" />
        </mxCell>
        <mxCell id="724cUraub_NGiYF2e8mZ-86" value="&lt;u&gt;Nombre&lt;/u&gt;" style="ellipse;whiteSpace=wrap;html=1;" vertex="1" parent="1">
          <mxGeometry x="1630" y="-120" width="70" height="20" as="geometry" />
        </mxCell>
        <mxCell id="724cUraub_NGiYF2e8mZ-87" value="" style="endArrow=none;html=1;rounded=0;entryX=0.371;entryY=1.1;entryDx=0;entryDy=0;entryPerimeter=0;exitX=0.5;exitY=0;exitDx=0;exitDy=0;" edge="1" parent="1" source="724cUraub_NGiYF2e8mZ-26" target="724cUraub_NGiYF2e8mZ-86">
          <mxGeometry width="50" height="50" relative="1" as="geometry">
            <mxPoint x="1550" y="-190" as="sourcePoint" />
            <mxPoint x="1600" y="-240" as="targetPoint" />
          </mxGeometry>
        </mxCell>
        <mxCell id="724cUraub_NGiYF2e8mZ-88" value="(1:N)" style="text;html=1;strokeColor=none;fillColor=none;align=center;verticalAlign=middle;whiteSpace=wrap;rounded=0;" vertex="1" parent="1">
          <mxGeometry x="1280" y="-85" width="60" height="30" as="geometry" />
        </mxCell>
        <mxCell id="724cUraub_NGiYF2e8mZ-89" value="(1:N:N)" style="text;html=1;strokeColor=none;fillColor=none;align=center;verticalAlign=middle;whiteSpace=wrap;rounded=0;" vertex="1" parent="1">
          <mxGeometry x="585" y="160" width="60" height="30" as="geometry" />
        </mxCell>
        <mxCell id="724cUraub_NGiYF2e8mZ-90" value="(N:M)" style="text;html=1;strokeColor=none;fillColor=none;align=center;verticalAlign=middle;whiteSpace=wrap;rounded=0;" vertex="1" parent="1">
          <mxGeometry x="1410" y="-105" width="60" height="30" as="geometry" />
        </mxCell>
      </root>
    </mxGraphModel>
  </diagram>
</mxfile>
